<svg xmlns="http://www.w3.org/2000/svg"
     width="175"
     height="55"
     viewBox="0 0 35 11"
     shape-rendering="crispEdges">
  <title>Bug type</title>
  <rect x="3" y="0" width="29" height="1" fill="#558624"/>
  <rect x="2" y="1" width="1" height="1" fill="#558624"/>
  <rect x="3" y="1" width="29" height="1" fill="#BEDF34"/>
  <rect x="32" y="1" width="1" height="1" fill="#558624"/>
  <rect x="1" y="2" width="1" height="1" fill="#558624"/>
  <rect x="2" y="2" width="7" height="1" fill="#BEDF34"/>
  <rect x="9" y="2" width="15" height="1" fill="#558624"/>
  <rect x="24" y="2" width="9" height="1" fill="#BEDF34"/>
  <rect x="33" y="2" width="1" height="1" fill="#558624"/>
  <rect x="1" y="3" width="1" height="1" fill="#558624"/>
  <rect x="2" y="3" width="7" height="1" fill="#BEDF34"/>
  <rect x="9" y="3" width="1" height="1" fill="#558624"/>
  <rect x="10" y="3" width="3" height="1" fill="#FFFFFF"/>
  <rect x="13" y="3" width="2" height="1" fill="#558624"/>
  <rect x="15" y="3" width="1" height="1" fill="#FFFFFF"/>
  <rect x="16" y="3" width="2" height="1" fill="#558624"/>
  <rect x="18" y="3" width="1" height="1" fill="#FFFFFF"/>
  <rect x="19" y="3" width="2" height="1" fill="#558624"/>
  <rect x="21" y="3" width="2" height="1" fill="#FFFFFF"/>
  <rect x="23" y="3" width="2" height="1" fill="#558624"/>
  <rect x="25" y="3" width="8" height="1" fill="#BEDF34"/>
  <rect x="33" y="3" width="1" height="1" fill="#558624"/>
  <rect x="0" y="4" width="1" height="1" fill="#558624"/>
  <rect x="1" y="4" width="8" height="1" fill="#BEDF34"/>
  <rect x="9" y="4" width="1" height="1" fill="#558624"/>
  <rect x="10" y="4" width="1" height="1" fill="#FFFFFF"/>
  <rect x="11" y="4" width="2" height="1" fill="#558624"/>
  <rect x="13" y="4" width="1" height="1" fill="#FFFFFF"/>
  <rect x="14" y="4" width="1" height="1" fill="#558624"/>
  <rect x="15" y="4" width="1" height="1" fill="#FFFFFF"/>
  <rect x="16" y="4" width="2" height="1" fill="#558624"/>
  <rect x="18" y="4" width="1" height="1" fill="#FFFFFF"/>
  <rect x="19" y="4" width="1" height="1" fill="#558624"/>
  <rect x="20" y="4" width="1" height="1" fill="#FFFFFF"/>
  <rect x="21" y="4" width="4" height="1" fill="#558624"/>
  <rect x="25" y="4" width="9" height="1" fill="#BEDF34"/>
  <rect x="34" y="4" width="1" height="1" fill="#558624"/>
  <rect x="0" y="5" width="1" height="1" fill="#558624"/>
  <rect x="1" y="5" width="8" height="1" fill="#BEDF34"/>
  <rect x="9" y="5" width="1" height="1" fill="#558624"/>
  <rect x="10" y="5" width="3" height="1" fill="#FFFFFF"/>
  <rect x="13" y="5" width="2" height="1" fill="#558624"/>
  <rect x="15" y="5" width="1" height="1" fill="#FFFFFF"/>
  <rect x="16" y="5" width="2" height="1" fill="#558624"/>
  <rect x="18" y="5" width="1" height="1" fill="#FFFFFF"/>
  <rect x="19" y="5" width="1" height="1" fill="#558624"/>
  <rect x="20" y="5" width="1" height="1" fill="#FFFFFF"/>
  <rect x="21" y="5" width="1" height="1" fill="#558624"/>
  <rect x="22" y="5" width="2" height="1" fill="#FFFFFF"/>
  <rect x="24" y="5" width="1" height="1" fill="#558624"/>
  <rect x="25" y="5" width="9" height="1" fill="#BEDF34"/>
  <rect x="34" y="5" width="1" height="1" fill="#558624"/>
  <rect x="0" y="6" width="1" height="1" fill="#558624"/>
  <rect x="1" y="6" width="8" height="1" fill="#BEDF34"/>
  <rect x="9" y="6" width="1" height="1" fill="#558624"/>
  <rect x="10" y="6" width="1" height="1" fill="#FFFFFF"/>
  <rect x="11" y="6" width="2" height="1" fill="#558624"/>
  <rect x="13" y="6" width="1" height="1" fill="#FFFFFF"/>
  <rect x="14" y="6" width="1" height="1" fill="#558624"/>
  <rect x="15" y="6" width="1" height="1" fill="#FFFFFF"/>
  <rect x="16" y="6" width="2" height="1" fill="#558624"/>
  <rect x="18" y="6" width="1" height="1" fill="#FFFFFF"/>
  <rect x="19" y="6" width="1" height="1" fill="#558624"/>
  <rect x="20" y="6" width="1" height="1" fill="#FFFFFF"/>
  <rect x="21" y="6" width="2" height="1" fill="#558624"/>
  <rect x="23" y="6" width="1" height="1" fill="#FFFFFF"/>
  <rect x="24" y="6" width="1" height="1" fill="#558624"/>
  <rect x="25" y="6" width="9" height="1" fill="#BEDF34"/>
  <rect x="34" y="6" width="1" height="1" fill="#558624"/>
  <rect x="1" y="7" width="1" height="1" fill="#558624"/>
  <rect x="2" y="7" width="7" height="1" fill="#BEDF34"/>
  <rect x="9" y="7" width="1" height="1" fill="#558624"/>
  <rect x="10" y="7" width="3" height="1" fill="#FFFFFF"/>
  <rect x="13" y="7" width="3" height="1" fill="#558624"/>
  <rect x="16" y="7" width="2" height="1" fill="#FFFFFF"/>
  <rect x="18" y="7" width="3" height="1" fill="#558624"/>
  <rect x="21" y="7" width="2" height="1" fill="#FFFFFF"/>
  <rect x="23" y="7" width="2" height="1" fill="#558624"/>
  <rect x="25" y="7" width="8" height="1" fill="#BEDF34"/>
  <rect x="33" y="7" width="1" height="1" fill="#558624"/>
  <rect x="1" y="8" width="1" height="1" fill="#558624"/>
  <rect x="2" y="8" width="7" height="1" fill="#BEDF34"/>
  <rect x="9" y="8" width="15" height="1" fill="#558624"/>
  <rect x="24" y="8" width="9" height="1" fill="#BEDF34"/>
  <rect x="33" y="8" width="1" height="1" fill="#558624"/>
  <rect x="2" y="9" width="1" height="1" fill="#558624"/>
  <rect x="3" y="9" width="29" height="1" fill="#BEDF34"/>
  <rect x="32" y="9" width="1" height="1" fill="#558624"/>
  <rect x="3" y="10" width="29" height="1" fill="#558624"/>
</svg>
