<svg xmlns="http://www.w3.org/2000/svg"
     width="175"
     height="55"
     viewBox="0 0 35 11"
     shape-rendering="crispEdges">
  <title>Ground type</title>
  <rect x="3" y="0" width="29" height="1" fill="#86652C"/>
  <rect x="2" y="1" width="1" height="1" fill="#86652C"/>
  <rect x="3" y="1" width="29" height="1" fill="#DFCF65"/>
  <rect x="32" y="1" width="1" height="1" fill="#86652C"/>
  <rect x="1" y="2" width="1" height="1" fill="#86652C"/>
  <rect x="2" y="2" width="2" height="1" fill="#DFCF65"/>
  <rect x="4" y="2" width="8" height="1" fill="#86652C"/>
  <rect x="12" y="2" width="1" height="1" fill="#DFCF65"/>
  <rect x="13" y="2" width="19" height="1" fill="#86652C"/>
  <rect x="32" y="2" width="1" height="1" fill="#DFCF65"/>
  <rect x="33" y="2" width="1" height="1" fill="#86652C"/>
  <rect x="1" y="3" width="1" height="1" fill="#86652C"/>
  <rect x="2" y="3" width="1" height="1" fill="#DFCF65"/>
  <rect x="3" y="3" width="1" height="1" fill="#86652C"/>
  <rect x="4" y="3" width="3" height="1" fill="#FFFFFF"/>
  <rect x="7" y="3" width="1" height="1" fill="#86652C"/>
  <rect x="8" y="3" width="3" height="1" fill="#FFFFFF"/>
  <rect x="11" y="3" width="3" height="1" fill="#86652C"/>
  <rect x="14" y="3" width="2" height="1" fill="#FFFFFF"/>
  <rect x="16" y="3" width="2" height="1" fill="#86652C"/>
  <rect x="18" y="3" width="1" height="1" fill="#FFFFFF"/>
  <rect x="19" y="3" width="2" height="1" fill="#86652C"/>
  <rect x="21" y="3" width="1" height="1" fill="#FFFFFF"/>
  <rect x="22" y="3" width="1" height="1" fill="#86652C"/>
  <rect x="23" y="3" width="1" height="1" fill="#FFFFFF"/>
  <rect x="24" y="3" width="2" height="1" fill="#86652C"/>
  <rect x="26" y="3" width="1" height="1" fill="#FFFFFF"/>
  <rect x="27" y="3" width="1" height="1" fill="#86652C"/>
  <rect x="28" y="3" width="3" height="1" fill="#FFFFFF"/>
  <rect x="31" y="3" width="1" height="1" fill="#86652C"/>
  <rect x="32" y="3" width="1" height="1" fill="#DFCF65"/>
  <rect x="33" y="3" width="1" height="1" fill="#86652C"/>
  <rect x="0" y="4" width="1" height="1" fill="#86652C"/>
  <rect x="1" y="4" width="1" height="1" fill="#DFCF65"/>
  <rect x="2" y="4" width="1" height="1" fill="#86652C"/>
  <rect x="3" y="4" width="1" height="1" fill="#FFFFFF"/>
  <rect x="4" y="4" width="4" height="1" fill="#86652C"/>
  <rect x="8" y="4" width="1" height="1" fill="#FFFFFF"/>
  <rect x="9" y="4" width="2" height="1" fill="#86652C"/>
  <rect x="11" y="4" width="1" height="1" fill="#FFFFFF"/>
  <rect x="12" y="4" width="1" height="1" fill="#86652C"/>
  <rect x="13" y="4" width="1" height="1" fill="#FFFFFF"/>
  <rect x="14" y="4" width="2" height="1" fill="#86652C"/>
  <rect x="16" y="4" width="1" height="1" fill="#FFFFFF"/>
  <rect x="17" y="4" width="1" height="1" fill="#86652C"/>
  <rect x="18" y="4" width="1" height="1" fill="#FFFFFF"/>
  <rect x="19" y="4" width="2" height="1" fill="#86652C"/>
  <rect x="21" y="4" width="1" height="1" fill="#FFFFFF"/>
  <rect x="22" y="4" width="1" height="1" fill="#86652C"/>
  <rect x="23" y="4" width="2" height="1" fill="#FFFFFF"/>
  <rect x="25" y="4" width="1" height="1" fill="#86652C"/>
  <rect x="26" y="4" width="1" height="1" fill="#FFFFFF"/>
  <rect x="27" y="4" width="1" height="1" fill="#86652C"/>
  <rect x="28" y="4" width="1" height="1" fill="#FFFFFF"/>
  <rect x="29" y="4" width="2" height="1" fill="#86652C"/>
  <rect x="31" y="4" width="1" height="1" fill="#FFFFFF"/>
  <rect x="32" y="4" width="1" height="1" fill="#86652C"/>
  <rect x="33" y="4" width="1" height="1" fill="#DFCF65"/>
  <rect x="34" y="4" width="1" height="1" fill="#86652C"/>
  <rect x="0" y="5" width="1" height="1" fill="#86652C"/>
  <rect x="1" y="5" width="1" height="1" fill="#DFCF65"/>
  <rect x="2" y="5" width="1" height="1" fill="#86652C"/>
  <rect x="3" y="5" width="1" height="1" fill="#FFFFFF"/>
  <rect x="4" y="5" width="1" height="1" fill="#86652C"/>
  <rect x="5" y="5" width="2" height="1" fill="#FFFFFF"/>
  <rect x="7" y="5" width="1" height="1" fill="#86652C"/>
  <rect x="8" y="5" width="3" height="1" fill="#FFFFFF"/>
  <rect x="11" y="5" width="2" height="1" fill="#86652C"/>
  <rect x="13" y="5" width="1" height="1" fill="#FFFFFF"/>
  <rect x="14" y="5" width="2" height="1" fill="#86652C"/>
  <rect x="16" y="5" width="1" height="1" fill="#FFFFFF"/>
  <rect x="17" y="5" width="1" height="1" fill="#86652C"/>
  <rect x="18" y="5" width="1" height="1" fill="#FFFFFF"/>
  <rect x="19" y="5" width="2" height="1" fill="#86652C"/>
  <rect x="21" y="5" width="1" height="1" fill="#FFFFFF"/>
  <rect x="22" y="5" width="1" height="1" fill="#86652C"/>
  <rect x="23" y="5" width="1" height="1" fill="#FFFFFF"/>
  <rect x="24" y="5" width="1" height="1" fill="#86652C"/>
  <rect x="25" y="5" width="2" height="1" fill="#FFFFFF"/>
  <rect x="27" y="5" width="1" height="1" fill="#86652C"/>
  <rect x="28" y="5" width="1" height="1" fill="#FFFFFF"/>
  <rect x="29" y="5" width="2" height="1" fill="#86652C"/>
  <rect x="31" y="5" width="1" height="1" fill="#FFFFFF"/>
  <rect x="32" y="5" width="1" height="1" fill="#86652C"/>
  <rect x="33" y="5" width="1" height="1" fill="#DFCF65"/>
  <rect x="34" y="5" width="1" height="1" fill="#86652C"/>
  <rect x="0" y="6" width="1" height="1" fill="#86652C"/>
  <rect x="1" y="6" width="1" height="1" fill="#DFCF65"/>
  <rect x="2" y="6" width="1" height="1" fill="#86652C"/>
  <rect x="3" y="6" width="1" height="1" fill="#FFFFFF"/>
  <rect x="4" y="6" width="2" height="1" fill="#86652C"/>
  <rect x="6" y="6" width="1" height="1" fill="#FFFFFF"/>
  <rect x="7" y="6" width="1" height="1" fill="#86652C"/>
  <rect x="8" y="6" width="1" height="1" fill="#FFFFFF"/>
  <rect x="9" y="6" width="2" height="1" fill="#86652C"/>
  <rect x="11" y="6" width="1" height="1" fill="#FFFFFF"/>
  <rect x="12" y="6" width="1" height="1" fill="#86652C"/>
  <rect x="13" y="6" width="1" height="1" fill="#FFFFFF"/>
  <rect x="14" y="6" width="2" height="1" fill="#86652C"/>
  <rect x="16" y="6" width="1" height="1" fill="#FFFFFF"/>
  <rect x="17" y="6" width="1" height="1" fill="#86652C"/>
  <rect x="18" y="6" width="1" height="1" fill="#FFFFFF"/>
  <rect x="19" y="6" width="2" height="1" fill="#86652C"/>
  <rect x="21" y="6" width="1" height="1" fill="#FFFFFF"/>
  <rect x="22" y="6" width="1" height="1" fill="#86652C"/>
  <rect x="23" y="6" width="1" height="1" fill="#FFFFFF"/>
  <rect x="24" y="6" width="2" height="1" fill="#86652C"/>
  <rect x="26" y="6" width="1" height="1" fill="#FFFFFF"/>
  <rect x="27" y="6" width="1" height="1" fill="#86652C"/>
  <rect x="28" y="6" width="1" height="1" fill="#FFFFFF"/>
  <rect x="29" y="6" width="2" height="1" fill="#86652C"/>
  <rect x="31" y="6" width="1" height="1" fill="#FFFFFF"/>
  <rect x="32" y="6" width="1" height="1" fill="#86652C"/>
  <rect x="33" y="6" width="1" height="1" fill="#DFCF65"/>
  <rect x="34" y="6" width="1" height="1" fill="#86652C"/>
  <rect x="1" y="7" width="1" height="1" fill="#86652C"/>
  <rect x="2" y="7" width="1" height="1" fill="#DFCF65"/>
  <rect x="3" y="7" width="1" height="1" fill="#86652C"/>
  <rect x="4" y="7" width="2" height="1" fill="#FFFFFF"/>
  <rect x="6" y="7" width="2" height="1" fill="#86652C"/>
  <rect x="8" y="7" width="1" height="1" fill="#FFFFFF"/>
  <rect x="9" y="7" width="2" height="1" fill="#86652C"/>
  <rect x="11" y="7" width="1" height="1" fill="#FFFFFF"/>
  <rect x="12" y="7" width="2" height="1" fill="#86652C"/>
  <rect x="14" y="7" width="2" height="1" fill="#FFFFFF"/>
  <rect x="16" y="7" width="3" height="1" fill="#86652C"/>
  <rect x="19" y="7" width="2" height="1" fill="#FFFFFF"/>
  <rect x="21" y="7" width="2" height="1" fill="#86652C"/>
  <rect x="23" y="7" width="1" height="1" fill="#FFFFFF"/>
  <rect x="24" y="7" width="2" height="1" fill="#86652C"/>
  <rect x="26" y="7" width="1" height="1" fill="#FFFFFF"/>
  <rect x="27" y="7" width="1" height="1" fill="#86652C"/>
  <rect x="28" y="7" width="3" height="1" fill="#FFFFFF"/>
  <rect x="31" y="7" width="1" height="1" fill="#86652C"/>
  <rect x="32" y="7" width="1" height="1" fill="#DFCF65"/>
  <rect x="33" y="7" width="1" height="1" fill="#86652C"/>
  <rect x="1" y="8" width="1" height="1" fill="#86652C"/>
  <rect x="2" y="8" width="2" height="1" fill="#DFCF65"/>
  <rect x="4" y="8" width="13" height="1" fill="#86652C"/>
  <rect x="17" y="8" width="1" height="1" fill="#DFCF65"/>
  <rect x="18" y="8" width="14" height="1" fill="#86652C"/>
  <rect x="32" y="8" width="1" height="1" fill="#DFCF65"/>
  <rect x="33" y="8" width="1" height="1" fill="#86652C"/>
  <rect x="2" y="9" width="1" height="1" fill="#86652C"/>
  <rect x="3" y="9" width="29" height="1" fill="#DFCF65"/>
  <rect x="32" y="9" width="1" height="1" fill="#86652C"/>
  <rect x="3" y="10" width="29" height="1" fill="#86652C"/>
</svg>
